<?xml version="1.0" encoding="UTF-8"?>
<!DOCTYPE svg PUBLIC "-//W3C//DTD SVG 1.1//EN" "http://www.w3.org/Graphics/SVG/1.1/DTD/svg11.dtd">
<svg xmlns="http://www.w3.org/2000/svg" version="1.1" width="2000px" height="414px" style="shape-rendering:geometricPrecision; text-rendering:geometricPrecision; image-rendering:optimizeQuality; fill-rule:evenodd; clip-rule:evenodd" xmlns:xlink="http://www.w3.org/1999/xlink">
<g><path style="opacity:1" fill="#bb83e7" d="M 2.5,0.5 C 667.167,0.5 1331.83,0.5 1996.5,0.5C 1996.5,137.833 1996.5,275.167 1996.5,412.5C 1331.83,412.5 667.167,412.5 2.5,412.5C 2.5,275.167 2.5,137.833 2.5,0.5 Z"/></g>
<g><path style="opacity:1" fill="#e7d4f6" d="M 21.5,18.5 C 673.5,18.5 1325.5,18.5 1977.5,18.5C 1977.5,143.833 1977.5,269.167 1977.5,394.5C 1325.5,394.5 673.5,394.5 21.5,394.5C 21.5,269.167 21.5,143.833 21.5,18.5 Z"/></g>
<g><path style="opacity:1" fill="#fefefe" d="M 22.5,19.5 C 673.833,19.5 1325.17,19.5 1976.5,19.5C 1976.5,144.167 1976.5,268.833 1976.5,393.5C 1325.17,393.5 673.833,393.5 22.5,393.5C 22.5,268.833 22.5,144.167 22.5,19.5 Z"/></g>
<g><path style="opacity:1" fill="#bb84e8" d="M 58.5,55.5 C 685.833,55.5 1313.17,55.5 1940.5,55.5C 1940.5,156.167 1940.5,256.833 1940.5,357.5C 1313.17,357.5 685.833,357.5 58.5,357.5C 58.5,256.833 58.5,156.167 58.5,55.5 Z"/></g>
<g><path style="opacity:1" fill="#fdfbfe" d="M 1341.5,110.5 C 1358.34,110.505 1366.51,118.838 1366,135.5C 1361.88,148.45 1353.05,153.617 1339.5,151C 1325.61,144.007 1322.11,133.507 1329,119.5C 1332.3,115.118 1336.47,112.118 1341.5,110.5 Z"/></g>
<g><path style="opacity:1" fill="#bc86e8" d="M 1342.5,120.5 C 1355.18,120.991 1359.01,126.991 1354,138.5C 1350.32,141.36 1346.15,142.193 1341.5,141C 1336.37,137.945 1334.53,133.445 1336,127.5C 1337.69,124.642 1339.86,122.309 1342.5,120.5 Z"/></g>
<g><path style="opacity:1" fill="#fdfcfe" d="M 860.5,122.5 C 869.173,122.334 877.84,122.5 886.5,123C 904.454,129.073 912.788,141.573 911.5,160.5C 907.452,160.395 903.452,160.728 899.5,161.5C 900.954,148.475 895.62,139.641 883.5,135C 876.5,134.333 869.5,134.333 862.5,135C 847.866,142.56 843.699,154.06 850,169.5C 851.793,172.295 853.96,174.795 856.5,177C 868.461,183.433 880.794,189.1 893.5,194C 912.728,206.087 918.228,222.92 910,244.5C 904.185,255.637 895.019,262.137 882.5,264C 859.141,268.741 842.974,260.241 834,238.5C 833.501,233.845 833.334,229.179 833.5,224.5C 837.466,223.838 841.466,223.505 845.5,223.5C 843.916,237.399 849.583,246.899 862.5,252C 871.369,253.167 880.035,252.5 888.5,250C 899.135,242.54 902.968,232.373 900,219.5C 898.292,214.588 895.458,210.421 891.5,207C 879.118,200.759 866.452,195.092 853.5,190C 836.563,179.204 831.063,164.037 837,144.5C 841.833,133.83 849.666,126.497 860.5,122.5 Z"/></g>
<g><path style="opacity:1" fill="#fefdfe" d="M 204.5,124.5 C 206.5,124.5 208.5,124.5 210.5,124.5C 210.5,170.5 210.5,216.5 210.5,262.5C 206.833,262.5 203.167,262.5 199.5,262.5C 199.667,231.165 199.5,199.832 199,168.5C 198.187,170.436 197.687,172.436 197.5,174.5C 186.77,203.689 176.437,233.023 166.5,262.5C 163.881,262.768 161.381,262.435 159,261.5C 148.394,232.515 137.894,203.515 127.5,174.5C 126.815,172.586 126.315,170.586 126,168.5C 125.5,199.832 125.333,231.165 125.5,262.5C 121.5,262.5 117.5,262.5 113.5,262.5C 113.5,216.5 113.5,170.5 113.5,124.5C 117.471,123.758 120.304,125.091 122,128.5C 135.215,164.65 148.715,200.65 162.5,236.5C 176.695,199.249 190.695,161.916 204.5,124.5 Z"/></g>
<g><path style="opacity:1" fill="#f2e9fa" d="M 204.5,124.5 C 206.607,123.532 208.941,123.198 211.5,123.5C 211.832,170.003 211.499,216.336 210.5,262.5C 210.5,216.5 210.5,170.5 210.5,124.5C 208.5,124.5 206.5,124.5 204.5,124.5 Z"/></g>
<g><path style="opacity:1" fill="#dec2f3" d="M 343.5,124.5 C 339.167,124.5 334.833,124.5 330.5,124.5C 330.5,129.5 330.5,134.5 330.5,139.5C 334.833,139.5 339.167,139.5 343.5,139.5C 339.03,140.486 334.363,140.819 329.5,140.5C 329.5,134.833 329.5,129.167 329.5,123.5C 334.363,123.181 339.03,123.514 343.5,124.5 Z"/></g>
<g><path style="opacity:1" fill="#fefffe" d="M 343.5,124.5 C 343.5,129.5 343.5,134.5 343.5,139.5C 339.167,139.5 334.833,139.5 330.5,139.5C 330.5,134.5 330.5,129.5 330.5,124.5C 334.833,124.5 339.167,124.5 343.5,124.5 Z"/></g>
<g><path style="opacity:1" fill="#fefdfe" d="M 1504.5,124.5 C 1504.17,140.181 1504.5,155.848 1505.5,171.5C 1506.11,171.376 1506.44,171.043 1506.5,170.5C 1513.88,162.977 1522.88,160.143 1533.5,162C 1547.1,164.27 1555.6,172.103 1559,185.5C 1559.5,211.165 1559.67,236.831 1559.5,262.5C 1555.5,262.5 1551.5,262.5 1547.5,262.5C 1547.67,237.164 1547.5,211.831 1547,186.5C 1543.33,176.732 1536.16,172.066 1525.5,172.5C 1515.24,172.27 1508.41,176.937 1505,186.5C 1504.5,211.831 1504.33,237.164 1504.5,262.5C 1500.83,262.5 1497.17,262.5 1493.5,262.5C 1493.5,216.5 1493.5,170.5 1493.5,124.5C 1497.17,124.5 1500.83,124.5 1504.5,124.5 Z"/></g>
<g><path style="opacity:1" fill="#d8b9f2" d="M 1504.5,124.5 C 1505.17,139.833 1505.83,155.167 1506.5,170.5C 1506.44,171.043 1506.11,171.376 1505.5,171.5C 1504.5,155.848 1504.17,140.181 1504.5,124.5 Z"/></g>
<g><path style="opacity:1" fill="#e8d6f7" d="M 1097.5,129.5 C 1092.83,129.5 1088.17,129.5 1083.5,129.5C 1083.5,134.167 1083.5,138.833 1083.5,143.5C 1082.51,138.695 1082.18,133.695 1082.5,128.5C 1087.69,128.179 1092.69,128.513 1097.5,129.5 Z"/></g>
<g><path style="opacity:1" fill="#fefffe" d="M 1097.5,129.5 C 1097.5,134.167 1097.5,138.833 1097.5,143.5C 1092.83,143.5 1088.17,143.5 1083.5,143.5C 1083.5,138.833 1083.5,134.167 1083.5,129.5C 1088.17,129.5 1092.83,129.5 1097.5,129.5 Z"/></g>
<g><path style="opacity:1" fill="#fefffe" d="M 1120.5,129.5 C 1125.17,129.5 1129.83,129.5 1134.5,129.5C 1134.5,134.167 1134.5,138.833 1134.5,143.5C 1134.5,138.833 1134.5,134.167 1134.5,129.5C 1129.83,129.5 1125.17,129.5 1120.5,129.5 Z"/></g>
<g><path style="opacity:1" fill="#e0c8f4" d="M 1120.5,129.5 C 1125.31,128.513 1130.31,128.179 1135.5,128.5C 1135.82,133.695 1135.49,138.695 1134.5,143.5C 1134.5,138.833 1134.5,134.167 1134.5,129.5C 1129.83,129.5 1125.17,129.5 1120.5,129.5 Z"/></g>
<g><path style="opacity:1" fill="#e8d6f7" d="M 1604.5,129.5 C 1599.83,129.5 1595.17,129.5 1590.5,129.5C 1590.5,134.167 1590.5,138.833 1590.5,143.5C 1589.51,138.695 1589.18,133.695 1589.5,128.5C 1594.69,128.179 1599.69,128.513 1604.5,129.5 Z"/></g>
<g><path style="opacity:1" fill="#fefffe" d="M 1604.5,129.5 C 1604.5,134.167 1604.5,138.833 1604.5,143.5C 1599.83,143.5 1595.17,143.5 1590.5,143.5C 1590.5,138.833 1590.5,134.167 1590.5,129.5C 1595.17,129.5 1599.83,129.5 1604.5,129.5 Z"/></g>
<g><path style="opacity:1" fill="#dcc0f3" d="M 1641.5,143.5 C 1641.5,138.833 1641.5,134.167 1641.5,129.5C 1636.83,129.5 1632.17,129.5 1627.5,129.5C 1627.5,134.167 1627.5,138.833 1627.5,143.5C 1626.51,138.695 1626.18,133.695 1626.5,128.5C 1631.83,128.5 1637.17,128.5 1642.5,128.5C 1642.82,133.695 1642.49,138.695 1641.5,143.5 Z"/></g>
<g><path style="opacity:1" fill="#fefffe" d="M 1641.5,143.5 C 1636.83,143.5 1632.17,143.5 1627.5,143.5C 1627.5,138.833 1627.5,134.167 1627.5,129.5C 1632.17,129.5 1636.83,129.5 1641.5,129.5C 1641.5,134.167 1641.5,138.833 1641.5,143.5 Z"/></g>
<g><path style="opacity:1" fill="#fdfbfe" d="M 265.5,205.5 C 274.167,205.5 282.833,205.5 291.5,205.5C 291.823,198.978 291.49,192.645 290.5,186.5C 288.988,178.822 284.321,174.322 276.5,173C 263.624,170.019 254.791,174.519 250,186.5C 249.503,188.81 249.337,191.143 249.5,193.5C 245.865,192.886 242.198,192.552 238.5,192.5C 238.143,178.386 244.476,168.552 257.5,163C 268.531,160.355 279.198,161.355 289.5,166C 296.344,170.849 300.844,177.349 303,185.5C 303.5,211.165 303.667,236.831 303.5,262.5C 301.712,262.785 300.045,262.452 298.5,261.5C 296.853,258.527 294.853,255.86 292.5,253.5C 280.015,265.416 266.015,267.583 250.5,260C 237.963,250.721 234.13,238.555 239,223.5C 244.22,212.142 253.054,206.142 265.5,205.5 Z"/></g>
<g><path style="opacity:1" fill="#fdfcfe" d="M 393.5,161.5 C 404.444,160.176 414.777,162.01 424.5,167C 430.222,171.617 434.056,177.45 436,184.5C 436.939,204.543 436.605,224.543 435,244.5C 428.857,258.944 417.857,265.61 402,264.5C 385.991,264.492 375.657,256.825 371,241.5C 370.333,222.5 370.333,203.5 371,184.5C 374.684,172.984 382.184,165.317 393.5,161.5 Z"/></g>
<g><path style="opacity:1" fill="#fdfcfe" d="M 488.5,161.5 C 492.833,161.5 497.167,161.5 501.5,161.5C 501.5,165.833 501.5,170.167 501.5,174.5C 496.156,174.334 490.823,174.501 485.5,175C 479.728,177.106 475.562,180.939 473,186.5C 472.5,211.831 472.333,237.164 472.5,262.5C 468.5,262.5 464.5,262.5 460.5,262.5C 460.5,229.5 460.5,196.5 460.5,163.5C 461.873,163.343 463.207,163.51 464.5,164C 466.543,167.253 468.71,170.42 471,173.5C 475.764,167.873 481.598,163.873 488.5,161.5 Z"/></g>
<g><path style="opacity:1" fill="#fdfcfe" d="M 545.5,161.5 C 562.587,159.456 574.754,166.123 582,181.5C 583.465,208.449 583.965,235.449 583.5,262.5C 579.5,262.5 575.5,262.5 571.5,262.5C 571.667,236.831 571.5,211.165 571,185.5C 567.031,176.056 559.864,171.722 549.5,172.5C 539.336,172.329 532.503,176.996 529,186.5C 528.5,211.831 528.333,237.164 528.5,262.5C 524.833,262.5 521.167,262.5 517.5,262.5C 517.5,229.5 517.5,196.5 517.5,163.5C 518.978,163.238 520.311,163.571 521.5,164.5C 523.5,167.5 525.5,170.5 527.5,173.5C 532.232,167.476 538.232,163.476 545.5,161.5 Z"/></g>
<g><path style="opacity:1" fill="#fdfbfe" d="M 632.5,161.5 C 649.694,158.642 662.527,164.642 671,179.5C 671.822,181.788 672.489,184.122 673,186.5C 673.5,211.831 673.667,237.164 673.5,262.5C 671.712,262.785 670.045,262.452 668.5,261.5C 666.853,258.527 664.853,255.86 662.5,253.5C 649.178,265.858 634.511,267.691 618.5,259C 607.821,249.28 604.654,237.447 609,223.5C 613.082,214.416 619.915,208.583 629.5,206C 640.161,205.5 650.828,205.333 661.5,205.5C 661.891,198.079 661.391,190.746 660,183.5C 657.305,177.73 652.805,174.23 646.5,173C 635.254,170.294 626.754,173.794 621,183.5C 619.801,186.726 619.301,190.059 619.5,193.5C 615.821,193.276 612.154,192.942 608.5,192.5C 608.282,175.726 616.282,165.393 632.5,161.5 Z"/></g>
<g><path style="opacity:1" fill="#fdfcfe" d="M 754.5,192.5 C 752.972,191.198 751.972,189.531 751.5,187.5C 748.654,176.894 741.654,171.894 730.5,172.5C 713.865,172.938 708.032,180.938 713,196.5C 715.592,199.762 718.759,202.262 722.5,204C 733.477,207.214 744.143,211.214 754.5,216C 763.642,223.427 766.809,232.927 764,244.5C 757.506,259.09 746.172,265.757 730,264.5C 707.847,264.017 697.013,252.85 697.5,231C 701.191,230.58 704.858,230.08 708.5,229.5C 706.937,241.227 711.604,249.061 722.5,253C 730.827,254.315 738.827,253.315 746.5,250C 752.667,244.306 754.167,237.473 751,229.5C 749.167,227.667 747.333,225.833 745.5,224C 736.003,220.208 726.337,216.875 716.5,214C 699.644,205.77 694.81,192.937 702,175.5C 711.247,163.524 723.414,159.024 738.5,162C 754.443,165.387 762.776,175.22 763.5,191.5C 760.482,191.704 757.482,192.037 754.5,192.5 Z"/></g>
<g><path style="opacity:1" fill="#fdfdfe" d="M 936.5,262.5 C 936.5,229.833 936.5,197.167 936.5,164.5C 937.833,164.5 939.167,164.5 940.5,164.5C 942.322,167.472 944.156,170.472 946,173.5C 957.522,160.523 971.022,158.023 986.5,166C 990.34,168.674 993.673,171.841 996.5,175.5C 1009.24,159.889 1024.24,157.389 1041.5,168C 1046.92,172.666 1050.42,178.499 1052,185.5C 1052.5,211.165 1052.67,236.831 1052.5,262.5C 1048.5,262.5 1044.5,262.5 1040.5,262.5C 1040.67,236.831 1040.5,211.165 1040,185.5C 1036.18,176.534 1029.35,172.201 1019.5,172.5C 1009.76,172.746 1003.26,177.413 1000,186.5C 999.5,211.831 999.333,237.164 999.5,262.5C 995.833,262.5 992.167,262.5 988.5,262.5C 988.667,237.164 988.5,211.831 988,186.5C 984.559,177.019 977.726,172.352 967.5,172.5C 958.184,172.655 951.684,176.988 948,185.5C 947.5,211.165 947.333,236.831 947.5,262.5C 943.833,262.5 940.167,262.5 936.5,262.5 Z"/></g>
<g><path style="opacity:1" fill="#fdfcfe" d="M 1100.5,161.5 C 1110.27,160.524 1119.6,162.024 1128.5,166C 1134.23,170.291 1138.4,175.791 1141,182.5C 1141.67,202.833 1141.67,223.167 1141,243.5C 1137.43,254.069 1130.26,260.903 1119.5,264C 1103.22,268.021 1090.06,263.521 1080,250.5C 1078.21,247.007 1076.88,243.341 1076,239.5C 1075.33,221.5 1075.33,203.5 1076,185.5C 1079.46,172.537 1087.63,164.537 1100.5,161.5 Z"/></g>
<g><path style="opacity:1" fill="#fefefe" d="M 1166.5,262.5 C 1166.5,229.833 1166.5,197.167 1166.5,164.5C 1167.5,164.5 1168.5,164.5 1169.5,164.5C 1172.13,167.079 1174.3,170.079 1176,173.5C 1184.01,164.077 1194.18,160.077 1206.5,161.5C 1206.5,165.833 1206.5,170.167 1206.5,174.5C 1196.73,172.695 1188.23,175.028 1181,181.5C 1180,183.5 1179,185.5 1178,187.5C 1177.5,212.498 1177.33,237.498 1177.5,262.5C 1173.83,262.5 1170.17,262.5 1166.5,262.5 Z"/></g>
<g><path style="opacity:1" fill="#fdfcfe" d="M 1245.5,161.5 C 1259.2,159.46 1270.7,163.46 1280,173.5C 1282.29,170.42 1284.46,167.253 1286.5,164C 1287.79,163.51 1289.13,163.343 1290.5,163.5C 1290.67,177.171 1290.5,190.837 1290,204.5C 1286.31,216.851 1278.15,224.351 1265.5,227C 1257.17,227.333 1248.83,227.667 1240.5,228C 1234.98,230.919 1233.14,235.419 1235,241.5C 1236.17,244 1238,245.833 1240.5,247C 1248.5,247.333 1256.5,247.667 1264.5,248C 1283.02,251.53 1291.19,262.697 1289,281.5C 1283.68,296.089 1273.18,303.089 1257.5,302.5C 1235.84,301.341 1225.67,290.008 1227,268.5C 1228.35,263.62 1230.85,259.453 1234.5,256C 1226.2,249.89 1223.03,241.723 1225,231.5C 1226.75,227.42 1228.92,223.587 1231.5,220C 1222.9,209.719 1220.07,197.886 1223,184.5C 1226.66,173.01 1234.16,165.343 1245.5,161.5 Z"/></g>
<g><path style="opacity:1" fill="#fdfcfe" d="M 1336.5,161.5 C 1347.17,160.079 1357.17,161.912 1366.5,167C 1372.22,171.617 1376.06,177.45 1378,184.5C 1378.5,210.498 1378.67,236.498 1378.5,262.5C 1377.13,262.657 1375.79,262.49 1374.5,262C 1372.33,258.996 1369.99,256.163 1367.5,253.5C 1358.5,262.943 1347.5,266.443 1334.5,264C 1317.47,257.797 1310.31,245.63 1313,227.5C 1316.17,216.333 1323.33,209.167 1334.5,206C 1345.16,205.5 1355.83,205.333 1366.5,205.5C 1366.67,198.492 1366.5,191.492 1366,184.5C 1359.83,173.977 1350.67,170.143 1338.5,173C 1328.72,176.406 1324.38,183.239 1325.5,193.5C 1321.5,193.167 1317.5,192.833 1313.5,192.5C 1313.91,176.761 1321.58,166.427 1336.5,161.5 Z"/></g>
<g><path style="opacity:1" fill="#fdfcfe" d="M 1409.5,230.5 C 1410.83,230.5 1412.17,230.5 1413.5,230.5C 1413.19,233.385 1413.53,236.052 1414.5,238.5C 1417.52,249.274 1424.69,254.274 1436,253.5C 1445.72,254.309 1453.05,250.643 1458,242.5C 1459.65,236.074 1458.15,230.574 1453.5,226C 1449.78,223.473 1445.78,221.473 1441.5,220C 1433.97,218.268 1426.64,215.935 1419.5,213C 1404.3,203.704 1400.46,190.87 1408,174.5C 1419.98,161.215 1434.48,157.715 1451.5,164C 1462.93,169.597 1468.93,178.764 1469.5,191.5C 1465.48,191.646 1461.48,191.979 1457.5,192.5C 1457.85,182.371 1453.19,175.871 1443.5,173C 1433.43,170.477 1424.93,172.977 1418,180.5C 1414.92,188.394 1416.42,195.227 1422.5,201C 1434.38,205.971 1446.38,210.637 1458.5,215C 1471.35,224.946 1473.85,237.113 1466,251.5C 1458.4,261.043 1448.4,265.376 1436,264.5C 1419.63,265.154 1408.63,257.82 1403,242.5C 1402.33,238.833 1402.33,235.167 1403,231.5C 1405.04,230.577 1407.21,230.244 1409.5,230.5 Z"/></g>
<g><path style="opacity:1" fill="#fdfcfe" d="M 1605.5,161.5 C 1614.31,160.971 1622.98,161.804 1631.5,164C 1639.82,167.655 1645.32,173.822 1648,182.5C 1648.67,202.833 1648.67,223.167 1648,243.5C 1644.43,254.069 1637.26,260.903 1626.5,264C 1610.22,268.021 1597.06,263.521 1587,250.5C 1585.21,247.007 1583.88,243.341 1583,239.5C 1582.33,221.5 1582.33,203.5 1583,185.5C 1586.25,173.416 1593.75,165.416 1605.5,161.5 Z"/></g>
<g><path style="opacity:1" fill="#fefefe" d="M 1673.5,262.5 C 1673.5,229.833 1673.5,197.167 1673.5,164.5C 1674.5,164.5 1675.5,164.5 1676.5,164.5C 1679.13,167.079 1681.3,170.079 1683,173.5C 1691.01,164.077 1701.18,160.077 1713.5,161.5C 1713.5,165.833 1713.5,170.167 1713.5,174.5C 1703.73,172.695 1695.23,175.028 1688,181.5C 1687,183.5 1686,185.5 1685,187.5C 1684.5,212.498 1684.33,237.498 1684.5,262.5C 1680.83,262.5 1677.17,262.5 1673.5,262.5 Z"/></g>
<g><path style="opacity:1" fill="#fdfdfe" d="M 1757.5,161.5 C 1774.12,159.559 1786.29,165.892 1794,180.5C 1795.47,207.769 1795.97,235.103 1795.5,262.5C 1791.5,262.5 1787.5,262.5 1783.5,262.5C 1783.67,236.498 1783.5,210.498 1783,184.5C 1778.6,175.711 1771.43,171.711 1761.5,172.5C 1752.4,172.299 1745.9,176.299 1742,184.5C 1741.5,210.498 1741.33,236.498 1741.5,262.5C 1737.5,262.5 1733.5,262.5 1729.5,262.5C 1729.5,229.5 1729.5,196.5 1729.5,163.5C 1730.87,163.343 1732.21,163.51 1733.5,164C 1735.54,167.253 1737.71,170.42 1740,173.5C 1744.84,167.847 1750.67,163.847 1757.5,161.5 Z"/></g>
<g><path style="opacity:1" fill="#fdfcfe" d="M 1843.5,161.5 C 1854.17,160.079 1864.17,161.912 1873.5,167C 1879.22,171.617 1883.06,177.45 1885,184.5C 1885.5,210.498 1885.67,236.498 1885.5,262.5C 1884.13,262.657 1882.79,262.49 1881.5,262C 1879.33,258.996 1876.99,256.163 1874.5,253.5C 1865.5,262.943 1854.5,266.443 1841.5,264C 1824.47,257.797 1817.31,245.63 1820,227.5C 1823.17,216.333 1830.33,209.167 1841.5,206C 1852.16,205.5 1862.83,205.333 1873.5,205.5C 1873.67,198.492 1873.5,191.492 1873,184.5C 1866.83,173.977 1857.67,170.143 1845.5,173C 1835.72,176.406 1831.38,183.239 1832.5,193.5C 1828.5,193.167 1824.5,192.833 1820.5,192.5C 1820.91,176.761 1828.58,166.427 1843.5,161.5 Z"/></g>
<g><path style="opacity:1" fill="#fdfbfe" d="M 330.5,163.5 C 334.5,163.5 338.5,163.5 342.5,163.5C 342.667,202.168 342.5,240.835 342,279.5C 337.716,293.616 328.216,301.283 313.5,302.5C 313.5,298.5 313.5,294.5 313.5,290.5C 321.95,290.549 327.45,286.549 330,278.5C 330.5,240.168 330.667,201.835 330.5,163.5 Z"/></g>
<g><path style="opacity:1" fill="#eadaf8" d="M 940.5,164.5 C 939.167,164.5 937.833,164.5 936.5,164.5C 936.5,197.167 936.5,229.833 936.5,262.5C 935.502,229.671 935.168,196.671 935.5,163.5C 937.415,163.216 939.081,163.549 940.5,164.5 Z"/></g>
<g><path style="opacity:1" fill="#efe2fa" d="M 1169.5,164.5 C 1168.5,164.5 1167.5,164.5 1166.5,164.5C 1166.5,197.167 1166.5,229.833 1166.5,262.5C 1165.5,229.671 1165.17,196.671 1165.5,163.5C 1167.1,163.232 1168.43,163.566 1169.5,164.5 Z"/></g>
<g><path style="opacity:1" fill="#f0e3fa" d="M 1676.5,164.5 C 1675.5,164.5 1674.5,164.5 1673.5,164.5C 1673.5,197.167 1673.5,229.833 1673.5,262.5C 1672.5,229.671 1672.17,196.671 1672.5,163.5C 1674.1,163.232 1675.43,163.566 1676.5,164.5 Z"/></g>
<g><path style="opacity:1" fill="#e4cff5" d="M 199.5,262.5 C 198.833,233.167 198.167,203.833 197.5,174.5C 197.687,172.436 198.187,170.436 199,168.5C 199.5,199.832 199.667,231.165 199.5,262.5 Z"/></g>
<g><path style="opacity:1" fill="#dec4f4" d="M 127.5,174.5 C 126.833,203.833 126.167,233.167 125.5,262.5C 125.333,231.165 125.5,199.832 126,168.5C 126.315,170.586 126.815,172.586 127.5,174.5 Z"/></g>
<g><path style="opacity:1" fill="#bb84e8" d="M 395.5,172.5 C 403.185,171.736 410.519,172.902 417.5,176C 420.433,178.264 422.6,181.098 424,184.5C 424.667,203.5 424.667,222.5 424,241.5C 421.438,247.061 417.272,250.894 411.5,253C 398.793,256.553 389.293,252.72 383,241.5C 382.333,222.5 382.333,203.5 383,184.5C 385.744,178.921 389.911,174.921 395.5,172.5 Z"/></g>
<g><path style="opacity:1" fill="#bc86e8" d="M 1101.5,172.5 C 1112.22,170.461 1121.05,173.461 1128,181.5C 1128.86,183.087 1129.53,184.754 1130,186.5C 1130.67,204.167 1130.67,221.833 1130,239.5C 1128.05,247.114 1123.22,251.614 1115.5,253C 1106.01,255.343 1097.85,253.177 1091,246.5C 1089.44,244.043 1088.44,241.376 1088,238.5C 1087.33,221.167 1087.33,203.833 1088,186.5C 1090.02,179.318 1094.52,174.652 1101.5,172.5 Z"/></g>
<g><path style="opacity:1" fill="#bb85e8" d="M 1247.5,172.5 C 1275.03,170.196 1284.53,182.196 1276,208.5C 1272.83,212.666 1268.67,215.166 1263.5,216C 1239.86,218.68 1230.36,208.18 1235,184.5C 1237.74,178.921 1241.91,174.921 1247.5,172.5 Z"/></g>
<g><path style="opacity:1" fill="#bc86e8" d="M 1608.5,172.5 C 1617.46,171.03 1625.46,173.03 1632.5,178.5C 1634.77,180.713 1636.27,183.379 1637,186.5C 1637.67,203.833 1637.67,221.167 1637,238.5C 1635.49,246.676 1630.66,251.509 1622.5,253C 1613.01,255.343 1604.85,253.177 1598,246.5C 1596.44,244.043 1595.44,241.376 1595,238.5C 1594.33,220.833 1594.33,203.167 1595,185.5C 1597.44,178.888 1601.94,174.555 1608.5,172.5 Z"/></g>
<g><path style="opacity:1" fill="#dfc5f4" d="M 751.5,187.5 C 751.972,189.531 752.972,191.198 754.5,192.5C 753.791,193.404 752.791,193.737 751.5,193.5C 751.5,191.5 751.5,189.5 751.5,187.5 Z"/></g>
<g><path style="opacity:1" fill="#c699ec" d="M 290.5,186.5 C 291.49,192.645 291.823,198.978 291.5,205.5C 282.833,205.5 274.167,205.5 265.5,205.5C 273.65,204.507 281.983,204.174 290.5,204.5C 290.5,198.5 290.5,192.5 290.5,186.5 Z"/></g>
<g><path style="opacity:1" fill="#bb85e8" d="M 261.5,215.5 C 271.167,215.5 280.833,215.5 290.5,215.5C 290.5,223.167 290.5,230.833 290.5,238.5C 289.656,245.852 285.656,250.685 278.5,253C 256.162,256.938 246.662,247.771 250,225.5C 252.147,220.184 255.98,216.851 261.5,215.5 Z"/></g>
<g><path style="opacity:1" fill="#ca9fed" d="M 261.5,215.5 C 271.319,214.506 281.319,214.173 291.5,214.5C 291.826,222.684 291.492,230.684 290.5,238.5C 290.5,230.833 290.5,223.167 290.5,215.5C 280.833,215.5 271.167,215.5 261.5,215.5 Z"/></g>
<g><path style="opacity:1" fill="#bc86e8" d="M 631.5,214.5 C 641.5,214.5 651.5,214.5 661.5,214.5C 661.666,222.507 661.5,230.507 661,238.5C 658.273,249.372 651.273,254.372 640,253.5C 623.672,253.163 616.672,244.829 619,228.5C 620.926,221.745 625.093,217.078 631.5,214.5 Z"/></g>
<g><path style="opacity:1" fill="#bb85e8" d="M 1336.5,214.5 C 1346.5,214.5 1356.5,214.5 1366.5,214.5C 1366.67,222.84 1366.5,231.173 1366,239.5C 1362.91,249.473 1356.08,254.14 1345.5,253.5C 1328.42,252.558 1321.58,243.558 1325,226.5C 1327.69,221.311 1331.52,217.311 1336.5,214.5 Z"/></g>
<g><path style="opacity:1" fill="#bb85e8" d="M 1843.5,214.5 C 1853.5,214.5 1863.5,214.5 1873.5,214.5C 1873.67,222.84 1873.5,231.173 1873,239.5C 1869.91,249.473 1863.08,254.14 1852.5,253.5C 1835.42,252.558 1828.58,243.558 1832,226.5C 1834.69,221.311 1838.52,217.311 1843.5,214.5 Z"/></g>
<g><path style="opacity:1" fill="#e5cff6" d="M 1409.5,230.5 C 1410.92,229.549 1412.59,229.216 1414.5,229.5C 1414.5,232.5 1414.5,235.5 1414.5,238.5C 1413.53,236.052 1413.19,233.385 1413.5,230.5C 1412.17,230.5 1410.83,230.5 1409.5,230.5 Z"/></g>
<g><path style="opacity:1" fill="#bc86e8" d="M 1250.5,258.5 C 1258.21,257.665 1265.54,258.831 1272.5,262C 1280.16,269.818 1280.5,277.984 1273.5,286.5C 1271.45,288.194 1269.11,289.361 1266.5,290C 1260.5,290.667 1254.5,290.667 1248.5,290C 1238.72,285.32 1235.55,277.82 1239,267.5C 1241.68,262.922 1245.52,259.922 1250.5,258.5 Z"/></g>
</svg>
